<?xml version="1.0" encoding="utf-8"?>
<!-- Generator: Adobe Illustrator 26.2.1, SVG Export Plug-In . SVG Version: 6.00 Build 0)  -->
<svg version="1.1" id="Layer_1" xmlns="http://www.w3.org/2000/svg" xmlns:xlink="http://www.w3.org/1999/xlink" x="0px" y="0px"
	 viewBox="0 0 4320 290" style="enable-background:new 0 0 4320 290;" xml:space="preserve">
<style type="text/css">
	.st0{fill:#472821;}
	.st1{fill:#291C1F;}
	.st2{fill:#1A161D;}
</style>
<g>
	<path class="st0" d="M4293.56,36.45c-32.64-12.26-67.59-17.31-102.35-18.01c-40.42-0.81-80.8,4.22-120.44,11.74
		c-87.66,16.62-175.1,43.67-264.12,37.43c-121.11-8.49-236.85-78.24-356.87-59.98c-60.16,9.15-114.75,39.86-173.55,55.47
		c-53.76,14.26-110.93,15.61-165.31,3.88c-46.34-9.99-91.32-29.32-136.5-44.79c-61.2-20.95-127.65-20.95-188.85,0
		c-45.18,15.47-90.16,34.79-136.5,44.79c-54.37,11.73-111.55,10.39-165.31-3.88c-58.8-15.6-113.39-46.31-173.55-55.47
		c-120.02-18.26-235.75,51.49-356.87,59.98c-89.02,6.24-176.46-20.82-264.12-37.43c-39.64-7.52-80.02-12.55-120.44-11.74
		c-34.76,0.7-69.71,5.75-102.35,18.01v0C1350,85,1326,30.18,1165.77,30.18c-89.22,0-150.1,43.67-239.12,37.43
		C805.53,59.12,689.8-10.63,569.78,7.63c-60.16,9.15-114.75,39.86-173.55,55.47c-53.76,14.26-110.93,15.61-165.31,3.88
		C152.57,50.08,78.1,6.5,0,0v290h1440h1440h1440V48.62C4313.13,44,4304.18,40.44,4293.56,36.45z"/>
	<path class="st1" d="M4302.49,123.75c-66.73-6.54-138.63,22.76-205.24,22.76c-79.25,0-172.88-16.21-202.38-21.73
		c-142.4-26.62-290.69,35.37-432.73,6.95c-36.23-7.25-71.14-20.26-107.49-26.87c-83.67-15.2-169.44,1.59-254.07,10.02
		c-150.57,15-286.57,25.94-441.15,0c-83.87-14.07-170.4-25.22-254.07-10.02c-36.36,6.6-71.26,19.62-107.49,26.87
		c-142.05,28.42-290.34-33.57-432.73-6.95c-29.49,5.51-123.13,21.73-202.38,21.73c-66.62,0-138.18-22.76-205.24-22.76
		c-70.51,0-173.65,22.76-240.27,22.76c-79.25,0-172.88-16.21-202.38-21.73c-142.4-26.62-290.69,35.37-432.73,6.95
		c-36.23-7.25-71.14-20.26-107.49-26.87c-83.67-15.2-169.21,4.25-254.07,10.02C146.78,119.91,72.27,114.46,0,98.8V290h1440h1440
		h1440V128.92C4315.23,126.18,4309.45,124.43,4302.49,123.75z"/>
	<path class="st2" d="M4277.88,241.76c-73.09,6-146.5,8.04-219.82,6.13c-41.58-1.08-83.13-3.44-124.56-7.07
		c-67.3-5.9-134.57-15.15-202.11-13.41c-121.1,3.13-241.17,41.56-361.5,27.71c-40.43-4.65-79.9-15.14-119.72-23.49
		c-15.36-3.22-33.71-6.58-54.05-9.95c-211.99-35.14-428.44-35.06-640.22,1.29c-17.11,2.94-32.68,5.85-46.08,8.66
		c-39.82,8.35-79.3,18.84-119.72,23.49c-120.33,13.84-240.4-24.58-361.5-27.71c-67.54-1.74-134.81,7.51-202.11,13.41
		c-41.43,3.63-82.98,5.99-124.56,7.07c-73.31,1.91-146.73-0.13-219.82-6.13c-11.51-0.94-45.12-4.47-84.23,0
		c-72.86,8.32-146.51,8.04-219.82,6.13c-41.58-1.08-83.13-3.44-124.56-7.07c-67.3-5.9-134.57-15.15-202.11-13.41
		c-121.1,3.13-241.17,41.56-361.5,27.71c-40.43-4.65-79.9-15.14-119.72-23.49C248.78,206.18,123.2,200.66,0,215.19V290h1440h1440
		h1440v-53.69C4306.6,236.11,4289.39,240.82,4277.88,241.76z"/>
</g>
</svg>
